<svg viewBox="0 0 24 24" fill="none" xmlns="http://www.w3.org/2000/svg" id="Notebook-Square--Streamline-Solar-Ar" height="24" width="24">
  <desc>
    Notebook Square Streamline Icon: https://streamlinehq.com
  </desc>
  <path d="m16.5568 6.0217 -0.0368 -0.7491 0.0368 0.7491ZM14.7 6.27079l-0.2003 -0.72275 0.2003 0.72275Zm-2.1781 0.99963 -0.3756 -0.64917 0.3756 0.64917ZM7.48717 6.06091l-0.05477 0.748 0.05477 -0.748ZM9 6.27079l-0.17801 0.72857L9 6.27079Zm2.4646 1.02239 -0.3486 0.66407 0.3486 -0.66407Zm1.0428 8.42912 0.3496 0.6635 -0.3496 -0.6635ZM15 14.6852l-0.178 -0.7286 0.178 0.7286Zm1.4901 -0.2082 0.0558 0.7479 -0.0558 -0.7479Zm-4.9975 1.2453 -0.3496 0.6635 0.3496 -0.6635ZM9 14.6852l0.17801 -0.7286L9 14.6852Zm-1.49009 -0.2082 -0.05577 0.7479 0.05577 -0.7479ZM6.75 12.9108V7.49649h-1.5v5.41431h1.5Zm12 0V7.45154h-1.5v5.45926h1.5Zm-2.23 -7.6382c-0.6296 0.03092 -1.3973 0.10274 -2.0203 0.27544l0.4006 1.44549c0.4579 -0.1269 1.0904 -0.19312 1.6932 -0.22273L16.52 5.2726Zm-2.0203 0.27544c-0.8322 0.23069 -1.7979 0.7518 -2.3534 1.07321l0.7512 1.29834c0.5512 -0.31889 1.3721 -0.7512 2.0028 -0.92606l-0.4006 -1.44549ZM7.4324 6.80891c0.4995 0.03657 1.00658 0.09686 1.38959 0.19045l0.35602 -1.45714c-0.50515 -0.12343 -1.11057 -0.19083 -1.63607 -0.22931l-0.10954 1.496Zm1.38959 0.19045c0.72605 0.1774 1.68151 0.63637 2.29401 0.95789l0.6972 -1.32815c-0.6147 -0.32264 -1.7134 -0.86166 -2.63519 -1.08688l-0.35602 1.45714ZM12.857 16.3858c0.6096 -0.3211 1.5832 -0.7918 2.321 -0.972l-0.356 -1.4572c-0.9353 0.2285 -2.0537 0.7805 -2.6642 1.1022l0.6992 1.327Zm2.321 -0.972c0.3771 -0.0922 0.8749 -0.1521 1.3679 -0.1889l-0.1116 -1.4958c-0.5194 0.0387 -1.1144 0.1059 -1.6123 0.2275l0.356 1.4572Zm-3.3358 -0.355c-0.6105 -0.3217 -1.7289 -0.8737 -2.66419 -1.1022l-0.35602 1.4572c0.7378 0.1802 1.71141 0.6509 2.32101 0.972l0.6992 -1.327Zm-2.66419 -1.1022c-0.49792 -0.1216 -1.09293 -0.1888 -1.61233 -0.2275l-0.11154 1.4958c0.49293 0.0368 0.99073 0.0967 1.36785 0.1889l0.35602 -1.4572ZM17.25 12.9108c0 0.4049 -0.3403 0.7828 -0.8157 0.8183l0.1116 1.4958c1.1857 -0.0884 2.2041 -1.0533 2.2041 -2.3141h-1.5Zm1.5 -5.45926c0 -1.19459 -0.9577 -2.24143 -2.23 -2.17894l0.0735 1.4982c0.3379 -0.0166 0.6565 0.26311 0.6565 0.68074h1.5ZM5.25 12.9108c0 1.2608 1.01836 2.2257 2.20414 2.3141l0.11154 -1.4958c-0.47537 -0.0355 -0.81568 -0.4134 -0.81568 -0.8183h-1.5Zm6.9078 2.148c-0.098 0.0516 -0.2176 0.0516 -0.3156 0l-0.6992 1.327c0.5356 0.2823 1.1784 0.2823 1.714 0l-0.6992 -1.327Zm-0.0115 -8.43755c-0.1029 0.05953 -0.2306 0.06165 -0.3331 0.00785l-0.6972 1.32815c0.5612 0.29455 1.2357 0.27816 1.7815 -0.03766l-0.7512 -1.29834ZM6.75 7.49649c0 -0.42675 0.33277 -0.71318 0.6824 -0.68758l0.10954 -1.496C6.248 5.21817 5.25 6.27527 5.25 7.49649h1.5Z" fill="#000000" stroke-width="1.5"></path>
  <path d="M12 7.58545v8.41435" stroke="#000000" stroke-width="1.5"></path>
  <path d="M2 9c0 -3.77124 0 -5.65685 1.17157 -6.82843C4.34315 1 6.22876 1 10 1h4c3.7712 0 5.6569 0 6.8284 1.17157C22 3.34315 22 5.22876 22 9v4c0 3.7712 0 5.6569 -1.1716 6.8284C19.6569 21 17.7712 21 14 21h-4c-3.77124 0 -5.65685 0 -6.82843 -1.1716C2 18.6569 2 16.7712 2 13V9Z" stroke="#000000" stroke-width="1.5"></path>
</svg>